v 0 50 20
v 11.755705045849464 50 16.18033988749895
v 19.02113032590307 50 6.180339887498949
v 19.021130325903073 50 -6.180339887498947
v 11.755705045849465 50 -16.180339887498945
v 2.4492127076447545e-15 50 -20
v -11.75570504584946 50 -16.180339887498953
v -19.02113032590307 50 -6.180339887498951
v -19.021130325903073 50 6.180339887498945
v -11.755705045849467 50 16.180339887498945
v -4.898425415289509e-15 50 20
v 0 -50 58
v 34.09154463296344 -50 46.92298567374695
v 55.161277945118904 -50 17.92298567374695
v 55.16127794511891 -50 -17.922985673746947
v 34.09154463296345 -50 -46.92298567374694
v 7.102716852169788e-15 -50 -58
v -34.09154463296343 -50 -46.92298567374696
v -55.161277945118904 -50 -17.922985673746958
v -55.16127794511891 -50 17.92298567374694
v -34.091544632963455 -50 46.92298567374694
v -1.4205433704339576e-14 -50 58
v 0 50 0
v 0 -50 0
vt 0 1
vt 0 0
vt 0.1 0
vt 0.1 1
vt 0.1 1
vt 0.1 0
vt 0.2 0
vt 0.2 1
vt 0.2 1
vt 0.2 0
vt 0.3 0
vt 0.3 1
vt 0.3 1
vt 0.3 0
vt 0.4 0
vt 0.4 1
vt 0.4 1
vt 0.4 0
vt 0.5 0
vt 0.5 1
vt 0.5 1
vt 0.5 0
vt 0.6 0
vt 0.6 1
vt 0.6 1
vt 0.6 0
vt 0.7 0
vt 0.7 1
vt 0.7 1
vt 0.7 0
vt 0.8 0
vt 0.8 1
vt 0.8 1
vt 0.8 0
vt 0.9 0
vt 0.9 1
vt 0.9 1
vt 0.9 0
vt 1 0
vt 1 1
vt 0 1
vt 0.1 1
vt 0 0
vt 0.1 1
vt 0.2 1
vt 0 0
vt 0.2 1
vt 0.3 1
vt 0 0
vt 0.3 1
vt 0.4 1
vt 0 0
vt 0.4 1
vt 0.5 1
vt 0 0
vt 0.5 1
vt 0.6 1
vt 0 0
vt 0.6 1
vt 0.7 1
vt 0 0
vt 0.7 1
vt 0.8 1
vt 0 0
vt 0.8 1
vt 0.9 1
vt 0 0
vt 0.9 1
vt 1 1
vt 0 0
vt 0.1 0
vt 0 0
vt 0 1
vt 0.2 0
vt 0.1 0
vt 0 1
vt 0.3 0
vt 0.2 0
vt 0 1
vt 0.4 0
vt 0.3 0
vt 0 1
vt 0.5 0
vt 0.4 0
vt 0 1
vt 0.6 0
vt 0.5 0
vt 0 1
vt 0.7 0
vt 0.6 0
vt 0 1
vt 0.8 0
vt 0.7 0
vt 0 1
vt 0.9 0
vt 0.8 0
vt 0 1
vt 1 0
vt 0.9 0
vt 0 1
vn 0 0.3552177606235726 0.9347835805883489
vn 0 0.3552177606235726 0.9347835805883489
vn 0.5494520027549841 0.3552177606235726 0.7562558027586376
vn 0.5494520027549841 0.3552177606235726 0.7562558027586376
vn 0.5494520027549841 0.3552177606235726 0.7562558027586376
vn 0.5494520027549841 0.3552177606235726 0.7562558027586376
vn 0.8890320156442649 0.3552177606235726 0.2888640124644631
vn 0.8890320156442649 0.3552177606235726 0.2888640124644631
vn 0.8890320156442649 0.3552177606235726 0.2888640124644631
vn 0.8890320156442649 0.3552177606235726 0.2888640124644631
vn 0.8890320156442652 0.3552177606235726 -0.28886401246446297
vn 0.8890320156442652 0.3552177606235726 -0.28886401246446297
vn 0.8890320156442652 0.3552177606235726 -0.28886401246446297
vn 0.8890320156442652 0.3552177606235726 -0.28886401246446297
vn 0.5494520027549842 0.3552177606235726 -0.7562558027586374
vn 0.5494520027549842 0.3552177606235726 -0.7562558027586374
vn 0.5494520027549842 0.3552177606235726 -0.7562558027586374
vn 0.5494520027549842 0.3552177606235726 -0.7562558027586374
vn 1.1447419122373243e-16 0.3552177606235726 -0.9347835805883489
vn 1.1447419122373243e-16 0.3552177606235726 -0.9347835805883489
vn 1.1447419122373243e-16 0.3552177606235726 -0.9347835805883489
vn 1.1447419122373243e-16 0.3552177606235726 -0.9347835805883489
vn -0.5494520027549838 0.35521776062357263 -0.7562558027586376
vn -0.5494520027549838 0.35521776062357263 -0.7562558027586376
vn -0.5494520027549838 0.35521776062357263 -0.7562558027586376
vn -0.5494520027549838 0.35521776062357263 -0.7562558027586376
vn -0.8890320156442649 0.3552177606235726 -0.28886401246446314
vn -0.8890320156442649 0.3552177606235726 -0.28886401246446314
vn -0.8890320156442649 0.3552177606235726 -0.28886401246446314
vn -0.8890320156442649 0.3552177606235726 -0.28886401246446314
vn -0.8890320156442652 0.3552177606235726 0.28886401246446286
vn -0.8890320156442652 0.3552177606235726 0.28886401246446286
vn -0.8890320156442652 0.3552177606235726 0.28886401246446286
vn -0.8890320156442652 0.3552177606235726 0.28886401246446286
vn -0.5494520027549843 0.3552177606235726 0.7562558027586374
vn -0.5494520027549843 0.3552177606235726 0.7562558027586374
vn -0.5494520027549843 0.3552177606235726 0.7562558027586374
vn -0.5494520027549843 0.3552177606235726 0.7562558027586374
vn -2.2894838244746487e-16 0.3552177606235726 0.9347835805883489
vn -2.2894838244746487e-16 0.3552177606235726 0.9347835805883489
vn 0 1 0
vn 0 1 0
vn 0 1 0
vn 0 1 0
vn 0 1 0
vn 0 1 0
vn 0 1 0
vn 0 1 0
vn 0 1 0
vn 0 1 0
vn 0 1 0
vn 0 1 0
vn 0 1 0
vn 0 1 0
vn 0 1 0
vn 0 1 0
vn 0 1 0
vn 0 1 0
vn 0 1 0
vn 0 1 0
vn 0 1 0
vn 0 1 0
vn 0 1 0
vn 0 1 0
vn 0 1 0
vn 0 1 0
vn 0 1 0
vn 0 1 0
vn 0 1 0
vn 0 1 0
vn 0 -1 0
vn 0 -1 0
vn 0 -1 0
vn 0 -1 0
vn 0 -1 0
vn 0 -1 0
vn 0 -1 0
vn 0 -1 0
vn 0 -1 0
vn 0 -1 0
vn 0 -1 0
vn 0 -1 0
vn 0 -1 0
vn 0 -1 0
vn 0 -1 0
vn 0 -1 0
vn 0 -1 0
vn 0 -1 0
vn 0 -1 0
vn 0 -1 0
vn 0 -1 0
vn 0 -1 0
vn 0 -1 0
vn 0 -1 0
vn 0 -1 0
vn 0 -1 0
vn 0 -1 0
vn 0 -1 0
vn 0 -1 0
vn 0 -1 0
f 1/1/1 12/2/2 13/3/3 2/4/4
f 2/5/5 13/6/6 14/7/7 3/8/8
f 3/9/9 14/10/10 15/11/11 4/12/12
f 4/13/13 15/14/14 16/15/15 5/16/16
f 5/17/17 16/18/18 17/19/19 6/20/20
f 6/21/21 17/22/22 18/23/23 7/24/24
f 7/25/25 18/26/26 19/27/27 8/28/28
f 8/29/29 19/30/30 20/31/31 9/32/32
f 9/33/33 20/34/34 21/35/35 10/36/36
f 10/37/37 21/38/38 22/39/39 11/40/40
f 1/41/41 2/42/42 23/43/43
f 2/44/44 3/45/45 23/46/46
f 3/47/47 4/48/48 23/49/49
f 4/50/50 5/51/51 23/52/52
f 5/53/53 6/54/54 23/55/55
f 6/56/56 7/57/57 23/58/58
f 7/59/59 8/60/60 23/61/61
f 8/62/62 9/63/63 23/64/64
f 9/65/65 10/66/66 23/67/67
f 10/68/68 11/69/69 23/70/70
f 13/71/71 12/72/72 24/73/73
f 14/74/74 13/75/75 24/76/76
f 15/77/77 14/78/78 24/79/79
f 16/80/80 15/81/81 24/82/82
f 17/83/83 16/84/84 24/85/85
f 18/86/86 17/87/87 24/88/88
f 19/89/89 18/90/90 24/91/91
f 20/92/92 19/93/93 24/94/94
f 21/95/95 20/96/96 24/97/97
f 22/98/98 21/99/99 24/100/100